<mxfile host="Electron" agent="Mozilla/5.0 (Windows NT 10.0; Win64; x64) AppleWebKit/537.36 (KHTML, like Gecko) draw.io/25.0.2 Chrome/128.0.6613.186 Electron/32.2.5 Safari/537.36" version="25.0.2">
  <diagram id="C5RBs43oDa-KdzZeNtuy" name="Page-1">
    <mxGraphModel dx="1690" dy="661" grid="0" gridSize="10" guides="0" tooltips="1" connect="1" arrows="1" fold="1" page="1" pageScale="1" pageWidth="1169" pageHeight="827" math="0" shadow="0">
      <root>
        <mxCell id="WIyWlLk6GJQsqaUBKTNV-0" />
        <mxCell id="WIyWlLk6GJQsqaUBKTNV-1" parent="WIyWlLk6GJQsqaUBKTNV-0" />
        <mxCell id="zkfFHV4jXpPFQw0GAbJ--0" value="Queue" style="swimlane;fontStyle=0;align=center;verticalAlign=top;childLayout=stackLayout;horizontal=1;startSize=26;horizontalStack=0;resizeParent=1;resizeLast=0;collapsible=1;marginBottom=0;rounded=0;shadow=0;strokeWidth=1;" parent="WIyWlLk6GJQsqaUBKTNV-1" vertex="1">
          <mxGeometry x="-632" y="32" width="415" height="440" as="geometry">
            <mxRectangle x="-656" y="42" width="160" height="26" as="alternateBounds" />
          </mxGeometry>
        </mxCell>
        <mxCell id="UHBOaMCUEMPZxtqwwTfS-5" value="+ queue_bulk : List&lt;Ship&gt; &#xa;&#xa; + queue_liquid : List&lt;Ship&gt; &#xa;&#xa;+ queue_container : List&lt;Ship&gt;" style="text;align=left;verticalAlign=top;spacingLeft=4;spacingRight=4;overflow=hidden;rotatable=0;points=[[0,0.5],[1,0.5]];portConstraint=eastwest;" parent="zkfFHV4jXpPFQw0GAbJ--0" vertex="1">
          <mxGeometry y="26" width="415" height="84" as="geometry" />
        </mxCell>
        <mxCell id="zkfFHV4jXpPFQw0GAbJ--4" value="" style="line;html=1;strokeWidth=1;align=left;verticalAlign=middle;spacingTop=-1;spacingLeft=3;spacingRight=3;rotatable=0;labelPosition=right;points=[];portConstraint=eastwest;" parent="zkfFHV4jXpPFQw0GAbJ--0" vertex="1">
          <mxGeometry y="110" width="415" height="1" as="geometry" />
        </mxCell>
        <mxCell id="EtCBlFoSebAKeMdjFQq1-0" value="+ Queue() : void&#xa;  &#xa;+ AddQueu(Ship ship, Time time) : void &#xa;&#xa;+ RemoveQueu(Ship ship) : void&#xa;&#xa; + IsShipInBulkQueue(Ship ship) : bool&#xa;&#xa; + IsShipInLiquidQueue(Ship ship) : bool&#xa;&#xa; + IsShipInContainerQueue(Ship ship) : bool&#xa;&#xa; + IsShipInQueue(Ship ship) : bool &#xa;&#xa; + PrintAllShipsInQueue() : void&#xa;&#xa; + ProcessQueue(List&lt;Ship&gt; queue, Port port, Time time,&#xa;                                                                           CargoType cargoType) : void&#xa;&#xa; + IsAnyShipInQueue() : bool&#xa;&#xa; + GetShipCountInQueueReflection(CargoType cargoType) : ulong" style="text;align=left;verticalAlign=top;spacingLeft=4;spacingRight=4;overflow=hidden;rotatable=0;points=[[0,0.5],[1,0.5]];portConstraint=eastwest;" vertex="1" parent="zkfFHV4jXpPFQw0GAbJ--0">
          <mxGeometry y="111" width="415" height="324" as="geometry" />
        </mxCell>
      </root>
    </mxGraphModel>
  </diagram>
</mxfile>
